<?xml version="1.0" encoding="utf-8"?>
<!DOCTYPE svg PUBLIC "-//W3C//DTD SVG 1.1//EN" "http://www.w3.org/Graphics/SVG/1.1/DTD/svg11.dtd">
<svg version="1.1" id="Layer_1" xmlns="http://www.w3.org/2000/svg" xmlns:xlink="http://www.w3.org/1999/xlink" x="0px" y="0px"
	 viewBox="0 0 24.5 24.5" style="enable-background:new 0 0 24.5 24.5;" xml:space="preserve">
<path d="M16,0.6l1.7,8.6l1.9-1.6c2.3,3.6,1.7,8.4-1.6,11.3c-2.2,2-5.2,2.6-7.9,1.9l-0.8,3.4c3.8,0.9,7.9,0.1,11-2.7
	c4.8-4.2,5.5-11.2,1.9-16.3l2-1.8L16,0.6z M4.9,17C2.6,13.4,3.2,8.6,6.5,5.7c2.2-2,5.2-2.6,7.9-1.9l0.8-3.4C11.5-0.6,7.3,0.3,4.2,3
	c-4.8,4.2-5.5,11.2-1.9,16.3l-2,1.8l8.3,2.8l-1.7-8.6L4.9,17z"/>
</svg>
